<?xml version="1.0" encoding="utf-8"?>
<!-- Generator: Adobe Illustrator 28.0.0, SVG Export Plug-In . SVG Version: 6.00 Build 0)  -->
<svg version="1.1" id="Layer_1" xmlns="http://www.w3.org/2000/svg" xmlns:xlink="http://www.w3.org/1999/xlink" x="0px" y="0px"
	 viewBox="0 0 36 36" style="enable-background:new 0 0 36 36;" xml:space="preserve">
<g id="Light-S_00000059310140038590584500000001930035573507160726_" transform="matrix(1 0 0 1 1102.22 696)">
	<path d="M-1093.62-664.17c1.53,0,2.92-0.58,4.17-1.75s2.23-2.79,2.97-4.87c0.73-2.08,1.1-4.48,1.1-7.21s-0.37-5.13-1.1-7.21
		c-0.73-2.07-1.72-3.69-2.97-4.86c-1.25-1.17-2.63-1.75-4.17-1.75s-2.92,0.58-4.16,1.75c-1.24,1.17-2.23,2.79-2.97,4.86
		c-0.74,2.07-1.11,4.48-1.11,7.21s0.37,5.14,1.11,7.21s1.73,3.7,2.97,4.87S-1095.15-664.17-1093.62-664.17z M-1093.62-666.1
		c-1.14,0.01-2.18-0.49-3.14-1.5c-0.95-1.01-1.72-2.41-2.29-4.2c-0.57-1.79-0.85-3.86-0.85-6.21c0-2.33,0.29-4.39,0.85-6.17
		s1.33-3.18,2.28-4.19s2-1.52,3.14-1.53c1.15-0.01,2.21,0.49,3.16,1.5c0.96,1.01,1.72,2.4,2.3,4.19s0.86,3.85,0.86,6.2
		c0,2.33-0.29,4.39-0.86,6.18s-1.34,3.19-2.3,4.2C-1091.41-666.62-1092.47-666.11-1093.62-666.1z M-1096.98-672.68
		c1.27,0,2.28-0.4,3.05-1.21s1.15-1.87,1.15-3.19c0-1.31-0.38-2.37-1.15-3.17c-0.77-0.8-1.78-1.2-3.05-1.2
		c-1.26,0-2.28,0.4-3.04,1.2c-0.77,0.8-1.15,1.86-1.15,3.17c0,1.32,0.38,2.38,1.15,3.19
		C-1099.26-673.08-1098.24-672.68-1096.98-672.68z M-1098.19-677.56c-0.27-0.04-0.47-0.2-0.62-0.47c-0.15-0.28-0.19-0.58-0.13-0.91
		c0.07-0.33,0.22-0.6,0.45-0.8c0.23-0.2,0.47-0.28,0.72-0.24c0.28,0.06,0.49,0.22,0.63,0.49c0.14,0.27,0.18,0.57,0.11,0.88
		c-0.06,0.33-0.2,0.6-0.42,0.8C-1097.68-677.6-1097.92-677.52-1098.19-677.56z M-1074.82-664.17c1.52,0,2.91-0.58,4.15-1.75
		s2.24-2.79,2.97-4.87s1.11-4.48,1.11-7.21s-0.37-5.13-1.11-7.21c-0.74-2.07-1.73-3.69-2.97-4.86c-1.25-1.17-2.63-1.75-4.15-1.75
		c-1.53,0-2.92,0.58-4.17,1.75c-1.25,1.17-2.23,2.79-2.97,4.86c-0.73,2.07-1.1,4.48-1.1,7.21s0.37,5.14,1.1,7.21
		c0.73,2.08,1.72,3.7,2.97,4.87S-1076.35-664.17-1074.82-664.17z M-1074.82-666.12c-1.16,0-2.21-0.5-3.16-1.51
		c-0.95-1.01-1.72-2.4-2.29-4.19c-0.57-1.79-0.86-3.85-0.86-6.19c0-2.33,0.28-4.39,0.85-6.17s1.33-3.18,2.28-4.19
		c0.95-1.01,2.01-1.51,3.17-1.52c1.14,0,2.19,0.5,3.14,1.51c0.95,1.01,1.72,2.4,2.29,4.18c0.57,1.78,0.86,3.84,0.86,6.18
		c0,2.33-0.29,4.39-0.86,6.18s-1.34,3.18-2.29,4.19C-1072.63-666.63-1073.68-666.12-1074.82-666.12z M-1078.19-672.68
		c1.25,0,2.27-0.4,3.04-1.21s1.16-1.87,1.16-3.19c0-1.31-0.39-2.37-1.16-3.17c-0.77-0.8-1.78-1.2-3.04-1.2
		c-1.27,0-2.29,0.4-3.06,1.2c-0.77,0.8-1.16,1.86-1.16,3.17c0,1.32,0.39,2.38,1.16,3.19S-1079.46-672.68-1078.19-672.68z
		 M-1079.4-677.56c-0.27-0.05-0.48-0.21-0.63-0.48c-0.15-0.27-0.19-0.57-0.12-0.9c0.07-0.33,0.21-0.6,0.43-0.8s0.47-0.28,0.73-0.24
		c0.27,0.05,0.47,0.21,0.61,0.49c0.14,0.28,0.18,0.57,0.11,0.89c-0.07,0.33-0.21,0.6-0.42,0.8
		C-1078.9-677.6-1079.14-677.52-1079.4-677.56z"/>
</g>
</svg>
