<?xml version="1.0" encoding="utf-8"?>
<!-- Generator: Adobe Illustrator 28.0.0, SVG Export Plug-In . SVG Version: 6.00 Build 0)  -->
<svg version="1.1" id="Layer_1" xmlns="http://www.w3.org/2000/svg" xmlns:xlink="http://www.w3.org/1999/xlink" x="0px" y="0px"
	 viewBox="0 0 36 36" style="enable-background:new 0 0 36 36;" xml:space="preserve">
<g id="Light-S_00000139995327409923444590000006957770773971489713_" transform="matrix(1 0 0 1 1110.62 696)">
	<path d="M-1099.51-694.9c-1.03,0-1.98,0.19-2.88,0.58c-0.89,0.39-1.68,0.92-2.36,1.59s-1.21,1.46-1.59,2.35s-0.57,1.84-0.57,2.86
		c0,0.87,0.15,1.71,0.44,2.5c0.29,0.79,0.69,1.51,1.21,2.15c0.11,0.14,0.24,0.24,0.37,0.3c0.13,0.06,0.27,0.1,0.4,0.1
		c0.23,0,0.42-0.08,0.59-0.23c0.17-0.15,0.27-0.34,0.31-0.56s-0.04-0.46-0.23-0.69c-0.42-0.48-0.74-1.03-0.96-1.64
		s-0.34-1.25-0.34-1.94c0-1.03,0.25-1.97,0.76-2.81c0.5-0.84,1.18-1.51,2.03-2.02c0.85-0.5,1.79-0.75,2.82-0.75
		c1.02,0,1.96,0.25,2.8,0.75s1.52,1.17,2.02,2.02c0.5,0.84,0.75,1.78,0.75,2.81c0,0.05,0,0.1,0,0.14c0,0.04,0,0.1,0,0.17
		c0,0.3,0.09,0.52,0.27,0.67c0.18,0.14,0.38,0.22,0.58,0.22c0.23,0,0.43-0.07,0.62-0.22c0.18-0.15,0.28-0.34,0.3-0.58
		c0.01-0.05,0.01-0.11,0.01-0.17c0-0.06,0-0.14,0-0.23c0-1.35-0.33-2.58-1-3.7c-0.66-1.12-1.55-2.01-2.67-2.68
		C-1096.92-694.57-1098.16-694.9-1099.51-694.9z M-1085.36-661.87c1.97-0.72,3.55-1.76,4.74-3.15s1.91-3.02,2.18-4.9
		s-0.01-3.94-0.83-6.18l-1.09-3.03c-0.61-1.65-1.44-2.8-2.49-3.45c-1.05-0.65-2.24-0.75-3.55-0.29c-0.35-0.47-0.79-0.77-1.31-0.92
		s-1.08-0.12-1.67,0.09c-0.42,0.16-0.82,0.39-1.19,0.69c-0.38-0.5-0.85-0.83-1.41-1c-0.56-0.17-1.15-0.13-1.76,0.09
		c-0.35,0.13-0.69,0.31-1,0.55l-1.77-4.87c-0.32-0.88-0.84-1.48-1.56-1.82c-0.71-0.34-1.47-0.36-2.28-0.08
		c-0.81,0.3-1.39,0.81-1.72,1.53c-0.33,0.72-0.34,1.52-0.03,2.39l4.48,12.26c0.03,0.09,0,0.15-0.07,0.18
		c-0.06,0.02-0.11,0-0.15-0.06l-2.08-2.28c-0.44-0.47-0.91-0.78-1.41-0.92s-1-0.13-1.49,0.05c-0.68,0.24-1.19,0.67-1.55,1.27
		c-0.36,0.6-0.39,1.28-0.12,2.04c0.07,0.21,0.17,0.43,0.31,0.67c0.14,0.24,0.29,0.46,0.44,0.66l5.2,6.29
		c1.88,2.27,3.92,3.76,6.13,4.46S-1087.84-660.96-1085.36-661.87z M-1085.93-663.64c-2.02,0.73-3.97,0.85-5.85,0.35
		c-1.88-0.5-3.68-1.78-5.38-3.85l-5.2-6.28c-0.17-0.2-0.3-0.42-0.38-0.64c-0.09-0.26-0.08-0.52,0.03-0.79s0.33-0.45,0.63-0.55
		c0.46-0.18,0.91-0.02,1.35,0.46l3.53,3.69c0.27,0.28,0.53,0.45,0.78,0.5s0.5,0.04,0.75-0.05c0.29-0.11,0.49-0.29,0.6-0.56
		c0.11-0.27,0.1-0.56-0.01-0.88l-5.34-14.7c-0.12-0.33-0.11-0.64,0.01-0.93s0.34-0.49,0.66-0.6c0.33-0.12,0.63-0.1,0.9,0.03
		s0.47,0.38,0.58,0.72l3.81,10.45c0.07,0.24,0.22,0.41,0.44,0.5c0.22,0.1,0.45,0.1,0.68,0.01c0.23-0.08,0.39-0.23,0.49-0.44
		s0.11-0.44,0.02-0.66l-1.38-3.78c0.25-0.24,0.53-0.42,0.84-0.54c0.82-0.3,1.39-0.01,1.71,0.86l1.17,3.22
		c0.09,0.26,0.25,0.43,0.47,0.52c0.22,0.09,0.44,0.09,0.67,0c0.21-0.07,0.37-0.21,0.47-0.42s0.12-0.44,0.02-0.69l-0.99-2.74
		c0.25-0.24,0.53-0.42,0.84-0.54c0.82-0.29,1.39,0,1.71,0.87l0.78,2.17c0.09,0.25,0.25,0.42,0.47,0.5c0.22,0.09,0.44,0.09,0.66,0.02
		c0.21-0.08,0.37-0.22,0.48-0.43s0.12-0.44,0.03-0.69l-0.63-1.69c0.69-0.26,1.34-0.13,1.95,0.39c0.6,0.51,1.12,1.37,1.56,2.56
		l0.96,2.61c0.7,1.94,0.96,3.71,0.78,5.29c-0.18,1.59-0.76,2.95-1.73,4.09S-1084.26-664.25-1085.93-663.64z"/>
</g>
</svg>
