<?xml version="1.0" encoding="utf-8"?>
<!-- Generator: Adobe Illustrator 28.0.0, SVG Export Plug-In . SVG Version: 6.00 Build 0)  -->
<svg version="1.1" id="Layer_1" xmlns="http://www.w3.org/2000/svg" xmlns:xlink="http://www.w3.org/1999/xlink" x="0px" y="0px"
	 viewBox="0 0 36 36" style="enable-background:new 0 0 36 36;" xml:space="preserve">
<g id="Light-S_00000084510975496073703460000015493098606888873899_" transform="matrix(1 0 0 1 1097.28 696)">
	<path d="M-1097.28-679.07c0,1.65,0.35,3.09,1.06,4.31c0.7,1.23,1.69,2.18,2.95,2.86c1.27,0.68,2.75,1.02,4.44,1.02
		c1.66,0,3.11-0.31,4.36-0.92s2.22-1.47,2.92-2.57c0.7-1.1,1.05-2.38,1.05-3.84c0-0.92-0.15-1.74-0.46-2.48
		c-0.31-0.74-0.73-1.34-1.28-1.8c-0.22-0.18-0.41-0.31-0.57-0.38s-0.35-0.11-0.56-0.11c-0.29,0-0.52,0.08-0.69,0.24
		c-0.18,0.16-0.27,0.37-0.27,0.63c0,0.19,0.03,0.35,0.1,0.48c0.07,0.13,0.17,0.25,0.3,0.36c0.13,0.12,0.29,0.26,0.47,0.42
		c0.32,0.31,0.56,0.68,0.73,1.13s0.25,0.94,0.25,1.47c0,1.61-0.58,2.91-1.74,3.9c-1.16,0.99-2.69,1.49-4.58,1.49
		c-1.96,0-3.53-0.57-4.71-1.72c-1.19-1.14-1.78-2.65-1.78-4.52c0-1.06,0.26-2.07,0.77-3.04c0.51-0.96,1.2-1.74,2.08-2.33l-0.95-1.74
		c-1.2,0.75-2.15,1.77-2.85,3.05C-1096.93-681.86-1097.28-680.51-1097.28-679.07z M-1093.66-686.24c0,0.99,0.22,1.87,0.65,2.65
		c0.44,0.78,1.06,1.4,1.87,1.84c0.81,0.45,1.78,0.67,2.9,0.67c0.27,0,0.51-0.1,0.7-0.29s0.29-0.43,0.29-0.7c0-0.27-0.1-0.5-0.29-0.7
		c-0.2-0.2-0.43-0.3-0.7-0.3c-1.08,0-1.92-0.3-2.53-0.92c-0.61-0.61-0.91-1.36-0.91-2.26c0-0.66,0.17-1.25,0.5-1.77
		s0.79-0.94,1.38-1.24c0.59-0.31,1.27-0.46,2.04-0.46c0.5,0,1.02,0.08,1.54,0.23c0.52,0.15,1.03,0.4,1.52,0.72l1.17-1.64
		c-0.67-0.45-1.36-0.78-2.08-0.99c-0.71-0.21-1.42-0.32-2.13-0.32c-1.12,0-2.13,0.24-3.03,0.71c-0.9,0.47-1.6,1.12-2.12,1.95
		C-1093.4-688.22-1093.66-687.28-1093.66-686.24z M-1086.36-686.64c-0.01,0.33,0.08,0.6,0.28,0.79s0.43,0.29,0.72,0.29
		c0.27,0,0.5-0.08,0.68-0.25c0.19-0.17,0.29-0.41,0.3-0.73c0.05-1.35,0.52-2.46,1.41-3.35c0.89-0.88,2.03-1.33,3.41-1.33
		c0.81,0,1.55,0.2,2.21,0.59c0.66,0.4,1.14,0.93,1.42,1.61c0.05,0.1,0.12,0.16,0.19,0.17c0.08,0.02,0.18,0.01,0.31-0.03
		c0.51-0.16,1.03-0.24,1.58-0.23c0.85,0.01,1.64,0.22,2.38,0.62c0.74,0.4,1.33,0.97,1.79,1.71c0.45,0.74,0.68,1.61,0.68,2.61
		c0,1.07-0.22,1.97-0.66,2.69c-0.44,0.73-1.01,1.35-1.71,1.88c-0.7,0.53-1.43,1.02-2.21,1.47c-0.78,0.45-1.51,0.94-2.21,1.46
		c-0.69,0.52-1.26,1.13-1.7,1.84s-0.66,1.59-0.66,2.63c0,0.98,0.23,1.83,0.7,2.54c0.47,0.71,1.11,1.26,1.92,1.64
		c0.81,0.39,1.73,0.58,2.76,0.58c0.16,0,0.33,0,0.51-0.01c0.18-0.01,0.36-0.02,0.54-0.02c0.1,0.81,0.32,1.57,0.67,2.28
		c0.35,0.71,0.81,1.28,1.38,1.72c0.57,0.44,1.25,0.66,2.03,0.66c0.83,0,1.56-0.23,2.19-0.69c0.62-0.46,1.14-1.09,1.55-1.88
		s0.72-1.69,0.93-2.69s0.31-2.04,0.31-3.11c0-0.82-0.02-1.54-0.06-2.15s-0.09-1.19-0.15-1.73l-2,0.56c0.06,0.54,0.12,1.07,0.16,1.59
		c0.04,0.52,0.06,1.08,0.06,1.69c0,1.2-0.13,2.28-0.39,3.25c-0.26,0.97-0.61,1.74-1.06,2.31c-0.45,0.57-0.96,0.85-1.55,0.85
		c-0.57,0-1.04-0.21-1.41-0.63c-0.37-0.42-0.64-0.95-0.81-1.59c-0.17-0.64-0.26-1.28-0.26-1.94c0-0.08-0.02-0.14-0.07-0.18
		c-0.04-0.04-0.11-0.06-0.2-0.06c-0.19,0-0.41,0-0.67,0.01s-0.47,0.01-0.64,0.01c-1.35,0-2.44-0.24-3.25-0.72
		c-0.82-0.48-1.23-1.26-1.23-2.32c0-0.85,0.22-1.55,0.66-2.12c0.44-0.57,1.01-1.07,1.71-1.51c0.7-0.44,1.43-0.88,2.21-1.33
		s1.51-0.96,2.21-1.55c0.69-0.59,1.26-1.31,1.7-2.18s0.66-1.95,0.66-3.25c0-1.39-0.3-2.6-0.9-3.64c-0.6-1.04-1.41-1.85-2.41-2.43
		c-1-0.58-2.1-0.87-3.28-0.87c-0.16,0-0.35,0.01-0.56,0.04c-0.21,0.03-0.42,0.07-0.64,0.13c-0.53-0.72-1.21-1.28-2.05-1.67
		c-0.84-0.4-1.74-0.59-2.69-0.59c-1.29,0-2.44,0.28-3.44,0.84c-1,0.56-1.8,1.33-2.39,2.32S-1086.3-687.92-1086.36-686.64z
		 M-1070-673.16c0,0.27,0.1,0.5,0.29,0.69c0.2,0.19,0.43,0.29,0.7,0.3c1.54,0.08,2.89-0.15,4.05-0.69c1.16-0.54,2.06-1.34,2.7-2.39
		c0.65-1.06,0.97-2.31,0.97-3.76c0-1.22-0.27-2.31-0.81-3.29s-1.29-1.78-2.27-2.41c-0.97-0.63-2.11-1.02-3.41-1.18l-0.28,2
		c1.42,0.02,2.58,0.48,3.45,1.37c0.88,0.89,1.32,2.06,1.32,3.5c0,1.57-0.53,2.79-1.58,3.68c-1.05,0.89-2.44,1.28-4.15,1.17
		c-0.27-0.02-0.51,0.08-0.7,0.28C-1069.9-673.67-1070-673.44-1070-673.16z M-1077.24-671.23c-0.4,0.14-0.83,0.24-1.3,0.3
		c-0.46,0.07-0.92,0.1-1.37,0.1c-1.14,0-2.24-0.21-3.3-0.62c-1.06-0.41-1.83-0.98-2.3-1.7l-1.66,1.34c0.73,0.9,1.71,1.62,2.94,2.17
		c1.23,0.55,2.61,0.82,4.12,0.82c0.54,0,1.11-0.04,1.72-0.12c0.61-0.08,1.21-0.21,1.81-0.39L-1077.24-671.23z M-1081.74-680.8
		l0.67,1.88c1.7-0.34,2.95-1.02,3.75-2.05c0.8-1.03,1.2-2.34,1.19-3.95c0-0.27-0.1-0.5-0.3-0.7c-0.2-0.2-0.43-0.3-0.7-0.3
		c-0.27,0-0.51,0.1-0.7,0.3c-0.2,0.2-0.29,0.43-0.29,0.7c0,1.17-0.28,2.1-0.83,2.79S-1080.43-681-1081.74-680.8z"/>
</g>
</svg>
